# xmcd
#
# Track frame offsets:
# 150
# 16137
# 32300
# 47700
# 62887
# 79362
# 92437
# 108875
# 125012
# 140837
# 155670
# 170517
# 184900
#
# Disc length: 2705 seconds
#
# Revision: 1
# Processed by: cddbd v1.5.1PL2 Copyright (c) Steve Scherf et al.
# Submitted via: Axialis_AX_CDPlayer 2.6
#
DISCID=ab0a8f0d
DTITLE=Hepsi - 2
DYEAR=2006
DGENRE=Pop
TTITLE0=Olmaz Böyle Sey
TTITLE1=Mum
TTITLE2=Kalpsizsin
TTITLE3=Tik Tak
TTITLE4=Hanimis
TTITLE5=Kolay Mi Sevmek
TTITLE6=Iki Kelime
TTITLE7=Bakalim
TTITLE8=Ask Sakizi
TTITLE9=Kafani Takma
TTITLE10=Saklanbac
TTITLE11=Dinlemem
TTITLE12=Uzat Elini
EXTD=
EXTT0=YEAR: 2006
EXTT1=
EXTT2=
EXTT3=
EXTT4=
EXTT5=
EXTT6=
EXTT7=
EXTT8=
EXTT9=
EXTT10=
EXTT11=
EXTT12=
PLAYORDER=
